<svg viewBox="0 0 16 16" xmlns="http://www.w3.org/2000/svg"><path d="m8.21392225 12.4506862c-.55324845-1.0889014-1.20226253-2.1887639-2.46827267-2.1887639-.24201014 0-.48373183.0400946-.70555043.1413408l-.43008-.8607369c.52411493-.44969465 1.3710062-.80621972 2.45961916-.80621972 1.69349408 0 2.56259606.81573859 3.25257019 1.85704562.4096-.88900506.6043042-2.08953689.6043042-3.57765407 0-3.71611042-1.16216791-5.62421183-3.87677749-5.62421183-2.67509183 0-3.8309138 1.90810141-3.8309138 5.62421183 0 3.69649577 1.15582197 5.58498257 3.8309138 5.58498257.42517634 0 .81025803-.0467291 1.16418704-.1499944zm.66314817 1.2968744c-.58642028.1572056-1.2094738.2440293-1.82733521.2440293-3.56207775 0-7.04973521-2.8423933-7.04973521-6.97589187 0-4.17272789 3.48765746-7.01569803 7.04973521-7.01569803 3.62178709 0 7.07598419 2.82249014 7.07598419 7.01569803 0 2.33241239-1.0883245 4.22782197-2.6701881 5.45287207.5111346.7658367 1.0372687 1.2743753 1.7699335 1.2743753.7995853 0 1.1220732-.6178615 1.1760135-1.1024586h1.0413071c.0608631.6452642-.2619133 3.3269904-3.1720924 3.3269904-1.7627223 0-2.69470652-1.0216924-3.39362258-2.2199166z" fill="#b92b27"/></svg>